<svg id="_61f8f3fd-6b56-45c5-89f2-afa0c413a7fa" data-name="61f8f3fd-6b56-45c5-89f2-afa0c413a7fa" xmlns="http://www.w3.org/2000/svg" xmlns:xlink="http://www.w3.org/1999/xlink" viewBox="0 0 282.91 646.03"><defs><style>.cls-1{opacity:0.7;}.cls-2{fill:url(#linear-gradient);}.cls-3{fill:#535461;}.cls-4{opacity:0.1;}.cls-5{fill:#e0e0e0;}.cls-6{fill:url(#linear-gradient-2);}.cls-7{fill:url(#linear-gradient-3);}.cls-8{fill:url(#linear-gradient-4);}.cls-9{fill:url(#linear-gradient-5);}.cls-10{fill:#eee;}.cls-11{fill:#fda312;}</style><linearGradient id="linear-gradient" x1="580.54" y1="10.89" x2="580.54" y2="656.92" gradientTransform="matrix(1, 0, 0, -1, -137.41, 704.94)" gradientUnits="userSpaceOnUse"><stop offset="0" stop-color="gray" stop-opacity="0.25"/><stop offset="0.54" stop-color="gray" stop-opacity="0.12"/><stop offset="1" stop-color="gray" stop-opacity="0.1"/></linearGradient><linearGradient id="linear-gradient-2" x1="345.9" y1="152.69" x2="345.9" y2="90.07" gradientTransform="matrix(1, 0, 0, -1, -301.68, 721.87)" gradientUnits="userSpaceOnUse"><stop offset="0" stop-color="#e0e0e0"/><stop offset="0.31" stop-color="#fccc63"/><stop offset="0.77" stop-color="#f55f44"/></linearGradient><linearGradient id="linear-gradient-3" x1="420.89" y1="152.69" x2="420.89" y2="90.07" xlink:href="#linear-gradient-2"/><linearGradient id="linear-gradient-4" x1="467.86" y1="152.69" x2="467.86" y2="90.07" xlink:href="#linear-gradient-2"/><linearGradient id="linear-gradient-5" x1="543.67" y1="152.69" x2="543.67" y2="90.07" xlink:href="#linear-gradient-2"/></defs><g class="cls-1"><path class="cls-2" d="M584.59,346.63a150.51,150.51,0,0,0-17-70c-5.34-10.15-10.21-16.46-14-20.33a10,10,0,0,0-11.4-2.25,10.3,10.3,0,0,0-4,2.58c-5.07,5.25-9.65,12.19-13.65,19.58a151.23,151.23,0,0,0-17.87,71.92v15.06H497v-175c0-36.68-8.21-72.87-24.29-105C465.1,68,458.15,58.53,452.8,52.72a13.81,13.81,0,0,0-20.76,0C424.8,60.59,418.27,71,412.56,82.05c-16.91,32.79-25.5,70-25.5,107.77V363.19h-8.35V347.41a151.23,151.23,0,0,0-17.87-71.92c-4-7.38-8.58-14.32-13.65-19.58a10,10,0,0,0-11.6-2.12l.35.19a10.43,10.43,0,0,0-3.26,2.28c-3.75,3.87-8.62,10.18-14,20.33a150.51,150.51,0,0,0-17,70V608.23h29.8l-3.25,21.51v64.31h24.36V629.74l-3.25-21.51h29.37V370h8.35v237.2h23.8l-3.42,22.57v64.32h24.37V629.74l-3.42-22.57h32.07L457,629.74v64.31h24.37V629.74L478,607.17h19V370h9.66V608.59h7.83v-.36h25.89l-3.25,21.51v64.31h24.37V629.74l-3.25-21.51h26.35Z" transform="translate(-301.68 -48.02)"/></g><polygon class="cls-3" points="55.76 569.18 32.69 569.18 36.81 541.17 51.64 541.17 55.76 569.18"/><g class="cls-4"><polygon points="35.66 552.29 52.79 552.29 51.64 544.46 36.81 544.46 35.66 552.29"/></g><polygon class="cls-3" points="253.52 569.18 230.45 569.18 234.57 541.17 249.4 541.17 253.52 569.18"/><g class="cls-4"><polygon points="233.42 552.29 250.55 552.29 249.4 544.46 234.57 544.46 233.42 552.29"/></g><polygon class="cls-3" points="130.75 569.18 107.67 569.18 111.79 541.17 126.63 541.17 130.75 569.18"/><g class="cls-4"><polygon points="110.64 552.29 127.78 552.29 126.63 544.46 111.79 544.46 110.64 552.29"/></g><polygon class="cls-3" points="177.71 569.18 154.64 569.18 158.76 541.17 173.59 541.17 177.71 569.18"/><g class="cls-4"><polygon points="157.61 552.29 174.75 552.29 173.59 544.46 158.76 544.46 157.61 552.29"/></g><rect class="cls-3" x="55.76" y="309.62" width="164.8" height="6.59"/><path class="cls-5" d="M547.72,253.51a9.29,9.29,0,0,0-13.12-.65c-.23.21-.44.42-.65.65-4.8,5.11-9.13,11.87-12.92,19.06a150.48,150.48,0,0,0-16.91,70V596.26h72.93V341.52a150,150,0,0,0-16.11-68.21C555.88,263.43,551.27,257.28,547.72,253.51Z" transform="translate(-301.68 -48.02)"/><path class="cls-5" d="M338.59,253.51a9.29,9.29,0,0,1,13.12-.65c.23.21.44.42.65.65,4.8,5.11,9.13,11.87,12.92,19.06a150.48,150.48,0,0,1,16.91,70V596.26H309.24V341.52a150,150,0,0,1,16.11-68.21C330.4,263.43,335,257.28,338.59,253.51Z" transform="translate(-301.68 -48.02)"/><polygon class="cls-3" points="7.97 298.91 25.27 298.99 25.27 320.33 7.97 320.33 7.97 298.91"/><polygon class="cls-3" points="63.18 298.91 80.48 298.99 80.48 320.33 63.18 320.33 63.18 298.91"/><polygon class="cls-3" points="202.43 298.91 219.74 298.99 219.74 320.33 202.43 320.33 202.43 298.91"/><polygon class="cls-3" points="257.64 298.91 274.95 298.99 274.95 320.33 257.64 320.33 257.64 298.91"/><g class="cls-4"><path d="M365.25,272.24c-3.78-7.19-8.12-13.95-12.92-19.06a9.26,9.26,0,0,0-11-2.07,9.89,9.89,0,0,1,2.78,2.07c4.8,5.11,9.13,11.87,12.92,19.06a150.48,150.48,0,0,1,16.91,70V595.91h8.24V342.27A150.5,150.5,0,0,0,365.25,272.24Z" transform="translate(-301.68 -48.02)"/></g><g class="cls-4"><path d="M527.59,272.94c3.78-7.19,8.12-13.95,12.92-19.06a9.77,9.77,0,0,1,3.19-2.28,9.27,9.27,0,0,0-10.6,2.28c-4.8,5.11-9.13,11.87-12.92,19.06a150.48,150.48,0,0,0-16.91,70V596.61h7.42V343A150.54,150.54,0,0,1,527.59,272.94Z" transform="translate(-301.68 -48.02)"/></g><rect class="cls-6" x="32.69" y="569.18" width="23.07" height="62.62"/><rect class="cls-7" x="107.67" y="569.18" width="23.07" height="62.62"/><rect class="cls-8" x="154.64" y="569.18" width="23.07" height="62.62"/><rect class="cls-9" x="230.45" y="569.18" width="23.07" height="62.62"/><path class="cls-10" d="M452.29,54.61a12.84,12.84,0,0,0-18.09-1.56,13.52,13.52,0,0,0-1.56,1.56c-6.85,7.66-13,17.79-18.44,28.57-16,31.94-24.14,68.19-24.14,105V595.22H494.15V186.49c0-35.72-7.77-71-23-102.21C463.94,69.47,457.36,60.27,452.29,54.61Z" transform="translate(-301.68 -48.02)"/><rect class="cls-11" x="112.55" y="51.81" width="54.31" height="24.89" rx="11"/><g class="cls-4"><rect x="88.91" y="154.03" width="103" height="4"/></g></svg>